<svg width="59" height="18" viewBox="0 0 59 18" fill="none" xmlns="http://www.w3.org/2000/svg">
<path d="M4.86719 17H0.519531V0.898438H11.418C12.5898 0.898438 13.582 1.01953 14.3945 1.26172C15.2148 1.50391 15.8789 1.84766 16.3867 2.29297C16.9023 2.73828 17.2734 3.27734 17.5 3.91016C17.7344 4.53516 17.8516 5.23438 17.8516 6.00781C17.8516 6.6875 17.7539 7.28125 17.5586 7.78906C17.3711 8.29688 17.1133 8.73438 16.7852 9.10156C16.4648 9.46094 16.0898 9.76562 15.6602 10.0156C15.2305 10.2656 14.7773 10.4727 14.3008 10.6367L19.5742 17H14.4883L9.61328 11.0703H4.86719V17ZM13.457 5.98438C13.457 5.67188 13.4141 5.40625 13.3281 5.1875C13.25 4.96875 13.1094 4.79297 12.9062 4.66016C12.7031 4.51953 12.4297 4.41797 12.0859 4.35547C11.75 4.29297 11.3281 4.26172 10.8203 4.26172H4.86719V7.70703H10.8203C11.3281 7.70703 11.75 7.67578 12.0859 7.61328C12.4297 7.55078 12.7031 7.45312 12.9062 7.32031C13.1094 7.17969 13.25 7 13.3281 6.78125C13.4141 6.5625 13.457 6.29688 13.457 5.98438ZM42.4141 8.9375C42.4141 9.96875 42.3008 10.8867 42.0742 11.6914C41.8477 12.4883 41.5273 13.1836 41.1133 13.7773C40.707 14.3711 40.2148 14.875 39.6367 15.2891C39.0664 15.7031 38.4297 16.0352 37.7266 16.2852C37.0234 16.5352 36.2656 16.7188 35.4531 16.8359C34.6406 16.9453 33.793 17 32.9102 17H22.6914V0.898438H32.8867C33.7695 0.898438 34.6172 0.957031 35.4297 1.07422C36.2422 1.18359 37 1.36328 37.7031 1.61328C38.4141 1.86328 39.0586 2.19531 39.6367 2.60938C40.2148 3.01562 40.707 3.51953 41.1133 4.12109C41.5273 4.71484 41.8477 5.41016 42.0742 6.20703C42.3008 7.00391 42.4141 7.91406 42.4141 8.9375ZM38.0312 8.9375C38.0312 8.16406 37.9297 7.49219 37.7266 6.92188C37.5312 6.35156 37.2109 5.88281 36.7656 5.51562C36.3281 5.14062 35.7539 4.86328 35.043 4.68359C34.332 4.49609 33.4648 4.40234 32.4414 4.40234H27.0391V13.4961H32.4414C33.4648 13.4961 34.332 13.4062 35.043 13.2266C35.7539 13.0391 36.3281 12.7578 36.7656 12.3828C37.2109 12 37.5312 11.5234 37.7266 10.9531C37.9297 10.3828 38.0312 9.71094 38.0312 8.9375ZM58.0469 11.0469C58.0469 12.1172 57.8711 13.0391 57.5195 13.8125C57.1758 14.5859 56.668 15.2227 55.9961 15.7227C55.332 16.2227 54.5156 16.5938 53.5469 16.8359C52.5781 17.0703 51.4727 17.1875 50.2305 17.1875C49.6445 17.1875 49.043 17.1562 48.4258 17.0938C47.8086 17.0391 47.2148 16.9688 46.6445 16.8828C46.0742 16.7969 45.5469 16.707 45.0625 16.6133C44.5859 16.5117 44.1875 16.418 43.8672 16.332V12.5586C44.1953 12.6914 44.5547 12.8281 44.9453 12.9688C45.3359 13.1016 45.7695 13.2227 46.2461 13.332C46.7305 13.4414 47.2617 13.5312 47.8398 13.6016C48.4258 13.6719 49.0703 13.707 49.7734 13.707C50.5312 13.707 51.1602 13.625 51.6602 13.4609C52.168 13.2891 52.5742 13.0547 52.8789 12.7578C53.1836 12.4531 53.3984 12.0977 53.5234 11.6914C53.6484 11.2852 53.7109 10.8398 53.7109 10.3555V0.898438H58.0469V11.0469Z" fill="white"/>
</svg>
